<mxfile host="Electron" modified="2023-11-28T17:24:23.525Z" agent="Mozilla/5.0 (Windows NT 10.0; Win64; x64) AppleWebKit/537.36 (KHTML, like Gecko) draw.io/22.1.2 Chrome/114.0.5735.289 Electron/25.9.4 Safari/537.36" etag="ZhhiSgGLQXoIgskwbC0n" version="22.1.2" type="device">
  <diagram name="Page-1" id="2YBvvXClWsGukQMizWep">
    <mxGraphModel dx="345" dy="202" grid="1" gridSize="10" guides="1" tooltips="1" connect="1" arrows="1" fold="1" page="1" pageScale="1" pageWidth="850" pageHeight="1100" math="0" shadow="0">
      <root>
        <mxCell id="0" />
        <mxCell id="1" parent="0" />
        <mxCell id="aM9ryv3xv72pqoxQDRHE-1" value="Trpaslík:1" style="shape=umlLifeline;perimeter=lifelinePerimeter;whiteSpace=wrap;html=1;container=0;dropTarget=0;collapsible=0;recursiveResize=0;outlineConnect=0;portConstraint=eastwest;newEdgeStyle={&quot;edgeStyle&quot;:&quot;elbowEdgeStyle&quot;,&quot;elbow&quot;:&quot;vertical&quot;,&quot;curved&quot;:0,&quot;rounded&quot;:0};" parent="1" vertex="1">
          <mxGeometry x="30" y="40" width="100" height="520" as="geometry" />
        </mxCell>
        <mxCell id="aM9ryv3xv72pqoxQDRHE-2" value="" style="html=1;points=[];perimeter=orthogonalPerimeter;outlineConnect=0;targetShapes=umlLifeline;portConstraint=eastwest;newEdgeStyle={&quot;edgeStyle&quot;:&quot;elbowEdgeStyle&quot;,&quot;elbow&quot;:&quot;vertical&quot;,&quot;curved&quot;:0,&quot;rounded&quot;:0};" parent="aM9ryv3xv72pqoxQDRHE-1" vertex="1">
          <mxGeometry x="45" y="70" width="10" height="50" as="geometry" />
        </mxCell>
        <mxCell id="aM9ryv3xv72pqoxQDRHE-5" value="Firma:1" style="shape=umlLifeline;perimeter=lifelinePerimeter;whiteSpace=wrap;html=1;container=0;dropTarget=0;collapsible=0;recursiveResize=0;outlineConnect=0;portConstraint=eastwest;newEdgeStyle={&quot;edgeStyle&quot;:&quot;elbowEdgeStyle&quot;,&quot;elbow&quot;:&quot;vertical&quot;,&quot;curved&quot;:0,&quot;rounded&quot;:0};" parent="1" vertex="1">
          <mxGeometry x="220" y="40" width="100" height="520" as="geometry" />
        </mxCell>
        <mxCell id="aM9ryv3xv72pqoxQDRHE-6" value="" style="html=1;points=[];perimeter=orthogonalPerimeter;outlineConnect=0;targetShapes=umlLifeline;portConstraint=eastwest;newEdgeStyle={&quot;edgeStyle&quot;:&quot;elbowEdgeStyle&quot;,&quot;elbow&quot;:&quot;vertical&quot;,&quot;curved&quot;:0,&quot;rounded&quot;:0};" parent="aM9ryv3xv72pqoxQDRHE-5" vertex="1">
          <mxGeometry x="45" y="80" width="10" height="30" as="geometry" />
        </mxCell>
        <mxCell id="ZP9mWW4F4url3jMpUXLQ-2" value="" style="endArrow=blockThin;html=1;rounded=0;endFill=1;" edge="1" parent="1" source="aM9ryv3xv72pqoxQDRHE-2" target="aM9ryv3xv72pqoxQDRHE-6">
          <mxGeometry width="50" height="50" relative="1" as="geometry">
            <mxPoint x="150" y="190" as="sourcePoint" />
            <mxPoint x="200" y="140" as="targetPoint" />
            <Array as="points">
              <mxPoint x="180" y="120" />
            </Array>
          </mxGeometry>
        </mxCell>
        <mxCell id="ZP9mWW4F4url3jMpUXLQ-3" value="" style="endArrow=blockThin;html=1;rounded=0;endFill=1;dashed=1;" edge="1" parent="1" source="aM9ryv3xv72pqoxQDRHE-6" target="aM9ryv3xv72pqoxQDRHE-2">
          <mxGeometry width="50" height="50" relative="1" as="geometry">
            <mxPoint x="270" y="150" as="sourcePoint" />
            <mxPoint x="90" y="150" as="targetPoint" />
            <Array as="points">
              <mxPoint x="185" y="150" />
            </Array>
          </mxGeometry>
        </mxCell>
        <mxCell id="ZP9mWW4F4url3jMpUXLQ-4" value="ZobrazInfo()" style="text;html=1;align=center;verticalAlign=middle;resizable=0;points=[];autosize=1;strokeColor=none;fillColor=none;" vertex="1" parent="1">
          <mxGeometry x="120" y="98" width="90" height="30" as="geometry" />
        </mxCell>
        <mxCell id="ZP9mWW4F4url3jMpUXLQ-13" style="edgeStyle=orthogonalEdgeStyle;rounded=0;orthogonalLoop=1;jettySize=auto;html=1;exitX=1;exitY=0.5;exitDx=0;exitDy=0;endArrow=blockThin;endFill=1;dashed=1;" edge="1" parent="1" source="ZP9mWW4F4url3jMpUXLQ-5">
          <mxGeometry relative="1" as="geometry">
            <mxPoint x="460" y="215" as="targetPoint" />
          </mxGeometry>
        </mxCell>
        <mxCell id="ZP9mWW4F4url3jMpUXLQ-5" value="" style="rounded=0;whiteSpace=wrap;html=1;" vertex="1" parent="1">
          <mxGeometry x="75" y="185" width="10" height="60" as="geometry" />
        </mxCell>
        <mxCell id="ZP9mWW4F4url3jMpUXLQ-9" value="" style="curved=1;endArrow=classic;html=1;rounded=0;entryX=0.75;entryY=0;entryDx=0;entryDy=0;exitX=1.004;exitY=0.107;exitDx=0;exitDy=0;exitPerimeter=0;" edge="1" parent="1" source="ZP9mWW4F4url3jMpUXLQ-5" target="ZP9mWW4F4url3jMpUXLQ-5">
          <mxGeometry width="50" height="50" relative="1" as="geometry">
            <mxPoint x="90" y="185" as="sourcePoint" />
            <mxPoint x="140" y="155" as="targetPoint" />
            <Array as="points">
              <mxPoint x="120" y="195" />
              <mxPoint x="100" y="155" />
            </Array>
          </mxGeometry>
        </mxCell>
        <mxCell id="ZP9mWW4F4url3jMpUXLQ-10" value="VytvořKontrakt()" style="text;html=1;align=center;verticalAlign=middle;resizable=0;points=[];autosize=1;strokeColor=none;fillColor=none;" vertex="1" parent="1">
          <mxGeometry x="100" y="160" width="110" height="30" as="geometry" />
        </mxCell>
        <mxCell id="ZP9mWW4F4url3jMpUXLQ-11" value="Kontrakt:1" style="shape=umlLifeline;perimeter=lifelinePerimeter;whiteSpace=wrap;html=1;container=0;dropTarget=0;collapsible=0;recursiveResize=0;outlineConnect=0;portConstraint=eastwest;newEdgeStyle={&quot;edgeStyle&quot;:&quot;elbowEdgeStyle&quot;,&quot;elbow&quot;:&quot;vertical&quot;,&quot;curved&quot;:0,&quot;rounded&quot;:0};" vertex="1" parent="1">
          <mxGeometry x="460" y="200" width="100" height="360" as="geometry" />
        </mxCell>
        <mxCell id="ZP9mWW4F4url3jMpUXLQ-12" value="" style="html=1;points=[];perimeter=orthogonalPerimeter;outlineConnect=0;targetShapes=umlLifeline;portConstraint=eastwest;newEdgeStyle={&quot;edgeStyle&quot;:&quot;elbowEdgeStyle&quot;,&quot;elbow&quot;:&quot;vertical&quot;,&quot;curved&quot;:0,&quot;rounded&quot;:0};" vertex="1" parent="ZP9mWW4F4url3jMpUXLQ-11">
          <mxGeometry x="45" y="70" width="10" height="30" as="geometry" />
        </mxCell>
        <mxCell id="ZP9mWW4F4url3jMpUXLQ-14" value="&amp;lt;&amp;lt;create&amp;gt;&amp;gt;" style="text;html=1;align=center;verticalAlign=middle;resizable=0;points=[];autosize=1;strokeColor=none;fillColor=none;" vertex="1" parent="1">
          <mxGeometry x="170" y="210" width="80" height="30" as="geometry" />
        </mxCell>
        <mxCell id="ZP9mWW4F4url3jMpUXLQ-26" style="edgeStyle=orthogonalEdgeStyle;rounded=0;orthogonalLoop=1;jettySize=auto;html=1;exitX=1;exitY=0.25;exitDx=0;exitDy=0;entryX=0;entryY=0;entryDx=0;entryDy=0;endArrow=blockThin;endFill=1;" edge="1" parent="1" source="ZP9mWW4F4url3jMpUXLQ-15" target="ZP9mWW4F4url3jMpUXLQ-27">
          <mxGeometry relative="1" as="geometry">
            <mxPoint x="420" y="330.16666666666674" as="targetPoint" />
            <Array as="points">
              <mxPoint x="400" y="330" />
              <mxPoint x="400" y="330" />
            </Array>
          </mxGeometry>
        </mxCell>
        <mxCell id="ZP9mWW4F4url3jMpUXLQ-15" value="" style="rounded=0;whiteSpace=wrap;html=1;" vertex="1" parent="1">
          <mxGeometry x="75" y="315" width="10" height="60" as="geometry" />
        </mxCell>
        <mxCell id="ZP9mWW4F4url3jMpUXLQ-18" value="Firma:2" style="rounded=0;whiteSpace=wrap;html=1;" vertex="1" parent="1">
          <mxGeometry x="340" y="40" width="100" height="40" as="geometry" />
        </mxCell>
        <mxCell id="ZP9mWW4F4url3jMpUXLQ-19" value="" style="endArrow=none;dashed=1;html=1;rounded=0;entryX=0.5;entryY=1;entryDx=0;entryDy=0;" edge="1" parent="1" source="ZP9mWW4F4url3jMpUXLQ-21" target="ZP9mWW4F4url3jMpUXLQ-18">
          <mxGeometry width="50" height="50" relative="1" as="geometry">
            <mxPoint x="390" y="490" as="sourcePoint" />
            <mxPoint x="290" y="130" as="targetPoint" />
          </mxGeometry>
        </mxCell>
        <mxCell id="ZP9mWW4F4url3jMpUXLQ-22" value="" style="endArrow=none;dashed=1;html=1;rounded=0;entryX=0.5;entryY=1;entryDx=0;entryDy=0;" edge="1" parent="1" target="ZP9mWW4F4url3jMpUXLQ-21">
          <mxGeometry width="50" height="50" relative="1" as="geometry">
            <mxPoint x="390" y="560" as="sourcePoint" />
            <mxPoint x="390" y="80" as="targetPoint" />
          </mxGeometry>
        </mxCell>
        <mxCell id="ZP9mWW4F4url3jMpUXLQ-23" style="edgeStyle=orthogonalEdgeStyle;rounded=0;orthogonalLoop=1;jettySize=auto;html=1;exitX=1;exitY=0.25;exitDx=0;exitDy=0;endArrow=blockThin;endFill=1;" edge="1" parent="1" source="ZP9mWW4F4url3jMpUXLQ-21" target="ZP9mWW4F4url3jMpUXLQ-12">
          <mxGeometry relative="1" as="geometry">
            <Array as="points">
              <mxPoint x="480" y="270" />
              <mxPoint x="480" y="270" />
            </Array>
          </mxGeometry>
        </mxCell>
        <mxCell id="ZP9mWW4F4url3jMpUXLQ-21" value="" style="rounded=0;whiteSpace=wrap;html=1;" vertex="1" parent="1">
          <mxGeometry x="385" y="255" width="10" height="60" as="geometry" />
        </mxCell>
        <mxCell id="ZP9mWW4F4url3jMpUXLQ-25" value="UzavřítKontrakt()" style="text;html=1;align=center;verticalAlign=middle;resizable=0;points=[];autosize=1;strokeColor=none;fillColor=none;" vertex="1" parent="1">
          <mxGeometry x="395" y="245" width="110" height="30" as="geometry" />
        </mxCell>
        <mxCell id="ZP9mWW4F4url3jMpUXLQ-30" style="edgeStyle=orthogonalEdgeStyle;rounded=0;orthogonalLoop=1;jettySize=auto;html=1;exitX=1;exitY=0.25;exitDx=0;exitDy=0;entryX=0.001;entryY=0.395;entryDx=0;entryDy=0;entryPerimeter=0;dashed=1;" edge="1" parent="1" source="ZP9mWW4F4url3jMpUXLQ-27" target="ZP9mWW4F4url3jMpUXLQ-29">
          <mxGeometry relative="1" as="geometry">
            <Array as="points">
              <mxPoint x="515" y="340" />
              <mxPoint x="640" y="340" />
            </Array>
          </mxGeometry>
        </mxCell>
        <mxCell id="ZP9mWW4F4url3jMpUXLQ-27" value="" style="rounded=0;whiteSpace=wrap;html=1;" vertex="1" parent="1">
          <mxGeometry x="505" y="330" width="10" height="30" as="geometry" />
        </mxCell>
        <mxCell id="ZP9mWW4F4url3jMpUXLQ-28" value="VytvořitDodávku()" style="text;html=1;align=center;verticalAlign=middle;resizable=0;points=[];autosize=1;strokeColor=none;fillColor=none;" vertex="1" parent="1">
          <mxGeometry x="150" y="300" width="120" height="30" as="geometry" />
        </mxCell>
        <mxCell id="ZP9mWW4F4url3jMpUXLQ-33" style="edgeStyle=orthogonalEdgeStyle;rounded=0;orthogonalLoop=1;jettySize=auto;html=1;exitX=0.5;exitY=1;exitDx=0;exitDy=0;endArrow=none;endFill=0;dashed=1;entryX=0.5;entryY=1;entryDx=0;entryDy=0;" edge="1" parent="1">
          <mxGeometry relative="1" as="geometry">
            <mxPoint x="690" y="440" as="targetPoint" />
            <mxPoint x="690" y="440" as="sourcePoint" />
          </mxGeometry>
        </mxCell>
        <mxCell id="ZP9mWW4F4url3jMpUXLQ-29" value="Dodávka:1" style="whiteSpace=wrap;html=1;" vertex="1" parent="1">
          <mxGeometry x="640" y="325" width="100" height="40" as="geometry" />
        </mxCell>
        <mxCell id="ZP9mWW4F4url3jMpUXLQ-31" value="&amp;lt;&amp;lt;create&amp;gt;&amp;gt;" style="text;html=1;align=center;verticalAlign=middle;resizable=0;points=[];autosize=1;strokeColor=none;fillColor=none;" vertex="1" parent="1">
          <mxGeometry x="540" y="335" width="80" height="30" as="geometry" />
        </mxCell>
        <mxCell id="ZP9mWW4F4url3jMpUXLQ-34" value="" style="rounded=0;whiteSpace=wrap;html=1;" vertex="1" parent="1">
          <mxGeometry x="265" y="375" width="10" height="25" as="geometry" />
        </mxCell>
        <mxCell id="ZP9mWW4F4url3jMpUXLQ-36" value="" style="edgeStyle=orthogonalEdgeStyle;rounded=0;orthogonalLoop=1;jettySize=auto;html=1;exitX=0.5;exitY=1;exitDx=0;exitDy=0;endArrow=none;endFill=0;dashed=1;" edge="1" parent="1" source="ZP9mWW4F4url3jMpUXLQ-47">
          <mxGeometry relative="1" as="geometry">
            <mxPoint x="690" y="447" as="targetPoint" />
            <mxPoint x="690" y="365" as="sourcePoint" />
          </mxGeometry>
        </mxCell>
        <mxCell id="ZP9mWW4F4url3jMpUXLQ-37" style="edgeStyle=orthogonalEdgeStyle;rounded=0;orthogonalLoop=1;jettySize=auto;html=1;exitX=1;exitY=0.25;exitDx=0;exitDy=0;entryX=0.163;entryY=0.144;entryDx=0;entryDy=0;entryPerimeter=0;endArrow=blockThin;endFill=1;" edge="1" parent="1" source="ZP9mWW4F4url3jMpUXLQ-34" target="ZP9mWW4F4url3jMpUXLQ-47">
          <mxGeometry relative="1" as="geometry">
            <mxPoint x="680" y="381" as="targetPoint" />
            <Array as="points">
              <mxPoint x="275" y="380" />
            </Array>
          </mxGeometry>
        </mxCell>
        <mxCell id="ZP9mWW4F4url3jMpUXLQ-38" value="ZměňStavDodávky()" style="text;html=1;align=center;verticalAlign=middle;resizable=0;points=[];autosize=1;strokeColor=none;fillColor=none;" vertex="1" parent="1">
          <mxGeometry x="370" y="360" width="130" height="30" as="geometry" />
        </mxCell>
        <mxCell id="ZP9mWW4F4url3jMpUXLQ-44" value="" style="group" vertex="1" connectable="0" parent="1">
          <mxGeometry x="680" y="440" width="20" height="20" as="geometry" />
        </mxCell>
        <mxCell id="ZP9mWW4F4url3jMpUXLQ-42" value="" style="endArrow=none;html=1;rounded=0;" edge="1" parent="ZP9mWW4F4url3jMpUXLQ-44">
          <mxGeometry width="50" height="50" relative="1" as="geometry">
            <mxPoint x="20" y="20" as="sourcePoint" />
            <mxPoint as="targetPoint" />
          </mxGeometry>
        </mxCell>
        <mxCell id="ZP9mWW4F4url3jMpUXLQ-43" value="" style="endArrow=none;html=1;rounded=0;" edge="1" parent="ZP9mWW4F4url3jMpUXLQ-44">
          <mxGeometry width="50" height="50" relative="1" as="geometry">
            <mxPoint x="20" as="sourcePoint" />
            <mxPoint y="20" as="targetPoint" />
          </mxGeometry>
        </mxCell>
        <mxCell id="ZP9mWW4F4url3jMpUXLQ-45" value="" style="rounded=0;whiteSpace=wrap;html=1;" vertex="1" parent="1">
          <mxGeometry x="265" y="440" width="10" height="25" as="geometry" />
        </mxCell>
        <mxCell id="ZP9mWW4F4url3jMpUXLQ-48" value="" style="edgeStyle=orthogonalEdgeStyle;rounded=0;orthogonalLoop=1;jettySize=auto;html=1;exitX=0.5;exitY=1;exitDx=0;exitDy=0;endArrow=none;endFill=0;dashed=1;" edge="1" parent="1" source="ZP9mWW4F4url3jMpUXLQ-29" target="ZP9mWW4F4url3jMpUXLQ-47">
          <mxGeometry relative="1" as="geometry">
            <mxPoint x="690" y="447" as="targetPoint" />
            <mxPoint x="690" y="365" as="sourcePoint" />
          </mxGeometry>
        </mxCell>
        <mxCell id="ZP9mWW4F4url3jMpUXLQ-52" style="edgeStyle=orthogonalEdgeStyle;rounded=0;orthogonalLoop=1;jettySize=auto;html=1;exitX=0;exitY=0.75;exitDx=0;exitDy=0;endArrow=blockThin;endFill=1;dashed=1;" edge="1" parent="1" source="ZP9mWW4F4url3jMpUXLQ-47">
          <mxGeometry relative="1" as="geometry">
            <mxPoint x="516" y="400" as="targetPoint" />
            <Array as="points">
              <mxPoint x="685" y="400" />
              <mxPoint x="516" y="400" />
            </Array>
          </mxGeometry>
        </mxCell>
        <mxCell id="ZP9mWW4F4url3jMpUXLQ-47" value="" style="rounded=0;whiteSpace=wrap;html=1;" vertex="1" parent="1">
          <mxGeometry x="685" y="375" width="10" height="35" as="geometry" />
        </mxCell>
        <mxCell id="ZP9mWW4F4url3jMpUXLQ-53" style="edgeStyle=orthogonalEdgeStyle;rounded=0;orthogonalLoop=1;jettySize=auto;html=1;exitX=1;exitY=1;exitDx=0;exitDy=0;dashed=1;endArrow=blockThin;endFill=1;" edge="1" parent="1" source="ZP9mWW4F4url3jMpUXLQ-51">
          <mxGeometry relative="1" as="geometry">
            <mxPoint x="690" y="450" as="targetPoint" />
            <Array as="points">
              <mxPoint x="650" y="450" />
              <mxPoint x="650" y="450" />
            </Array>
          </mxGeometry>
        </mxCell>
        <mxCell id="ZP9mWW4F4url3jMpUXLQ-51" value="" style="rounded=0;whiteSpace=wrap;html=1;" vertex="1" parent="1">
          <mxGeometry x="505" y="400" width="10" height="50" as="geometry" />
        </mxCell>
        <mxCell id="ZP9mWW4F4url3jMpUXLQ-54" value="&amp;lt;&amp;lt;destroy&amp;gt;&amp;gt;" style="text;html=1;align=center;verticalAlign=middle;resizable=0;points=[];autosize=1;strokeColor=none;fillColor=none;" vertex="1" parent="1">
          <mxGeometry x="550" y="440" width="90" height="30" as="geometry" />
        </mxCell>
        <mxCell id="ZP9mWW4F4url3jMpUXLQ-56" value="" style="curved=1;endArrow=classic;html=1;rounded=0;entryX=0.973;entryY=0.313;entryDx=0;entryDy=0;exitX=1.027;exitY=0.367;exitDx=0;exitDy=0;exitPerimeter=0;entryPerimeter=0;" edge="1" parent="1" source="ZP9mWW4F4url3jMpUXLQ-51" target="ZP9mWW4F4url3jMpUXLQ-51">
          <mxGeometry width="50" height="50" relative="1" as="geometry">
            <mxPoint x="520" y="420" as="sourcePoint" />
            <mxPoint x="520" y="420" as="targetPoint" />
            <Array as="points">
              <mxPoint x="530" y="430" />
              <mxPoint x="540" y="416" />
              <mxPoint x="530" y="400" />
            </Array>
          </mxGeometry>
        </mxCell>
        <mxCell id="ZP9mWW4F4url3jMpUXLQ-57" value="DokončitDodávku()" style="text;html=1;align=center;verticalAlign=middle;resizable=0;points=[];autosize=1;strokeColor=none;fillColor=none;" vertex="1" parent="1">
          <mxGeometry x="530" y="400" width="130" height="30" as="geometry" />
        </mxCell>
      </root>
    </mxGraphModel>
  </diagram>
</mxfile>
